<svg xmlns="http://www.w3.org/2000/svg" xml:space="preserve" width="800" height="800" viewBox="-267 288.9 264.5 225.1">
  <path d="M-21.8 354.4a5 5 0 0 1-1.2-3.5c.9-20.1-1.8-39.6-8.6-58.6-.9-2.4-2-3.3-4.5-2.6-5.6 1.7-11.4 3-16.9 5a213 213 0 0 0-42.6 22.2 8 8 0 0 1-5.2 1.2 203.3 203.3 0 0 0-66.5-.3c-2.2.3-5-.2-6.8-1.3-15.7-10.2-31.7-20.2-50-25-15.1-4-12-4.8-16.3 8.9a139.6 139.6 0 0 0-6 50.6c.1 1.2-.8 2.7-1.6 3.8a77.4 77.4 0 0 0-14.8 26.4c-6 19-4.8 38.2-1 57.3 7.5 37.5 32.8 63.8 70.2 70.3 19.3 3.4 39.2 3.7 57.3 5.2 20.2-1.5 38.9-1.6 57.1-4.5 31.8-5.1 55.8-22 67.8-52.7 4.2-10.7 6.5-22.4 7.9-33.8 3.2-25.1-1.1-48.7-18.3-68.6zm-17.7 104.4a40.8 40.8 0 0 1-27.6 31.8 160 160 0 0 1-45.4 8.6c-7.5.5-15 .1-22.5.1a195 195 0 0 1-59.9-6.2c-24.5-7.3-35.5-21.9-36.2-47.5-.3-9.1.7-17.9 5-26.1 8.5-16.5 23.2-22.3 40.6-22.6 9.5-.1 19.1.7 28.7 1.6 20.1 1.8 40-.1 60-1.2 8.8-.5 17.8-.7 26.4.8 18.5 3.2 32.5 21.6 32.8 42.3a95 95 0 0 1-1.9 18.4z"/>
    <path d="M-191.5 424.5a29.2 29.2 0 0 0-7.7 19.3c0 9.6 2.8 17.3 7.7 22.3 6.8 6.9 16.1 6.7 22.6-.3a32.4 32.4 0 0 0 0-41c-6.5-7.1-16-7.2-22.6-.3zM-99.4 423.7c-11.2 10.3-11.2 33 0 43.2a14.8 14.8 0 0 0 21.4-.7 30 30 0 0 0 7.8-21 29.4 29.4 0 0 0-7.9-20.9 14.7 14.7 0 0 0-21.3-.6z"/>
</svg>
